<mxfile host="app.diagrams.net" modified="2022-03-19T19:35:39.438Z" agent="5.0 (Windows NT 10.0; Win64; x64) AppleWebKit/537.36 (KHTML, like Gecko) Chrome/99.0.4844.74 Safari/537.36" etag="3f9FDiJ0t2azXexUcp52" version="17.0.0" type="github">
  <diagram id="26A-aRNeh7gq_8pZztqW" name="Page-1">
    <mxGraphModel dx="754" dy="719" grid="1" gridSize="10" guides="1" tooltips="1" connect="1" arrows="1" fold="1" page="1" pageScale="1" pageWidth="850" pageHeight="1100" math="0" shadow="0">
      <root>
        <mxCell id="0" />
        <mxCell id="1" parent="0" />
        <mxCell id="UrCILJKcK6zoqzMoZyDz-5" value="«interface»&lt;br&gt;&lt;b&gt;java.lang.Iterable&amp;lt;E&amp;gt;&lt;/b&gt;" style="html=1;" vertex="1" parent="1">
          <mxGeometry x="80" y="80" width="160" height="50" as="geometry" />
        </mxCell>
        <mxCell id="UrCILJKcK6zoqzMoZyDz-9" style="edgeStyle=orthogonalEdgeStyle;rounded=0;orthogonalLoop=1;jettySize=auto;html=1;exitX=0.5;exitY=0;exitDx=0;exitDy=0;entryX=0.5;entryY=1;entryDx=0;entryDy=0;endArrow=block;endFill=0;strokeWidth=1;endSize=12;startSize=8;dashed=1;" edge="1" parent="1" source="UrCILJKcK6zoqzMoZyDz-6" target="UrCILJKcK6zoqzMoZyDz-5">
          <mxGeometry relative="1" as="geometry" />
        </mxCell>
        <mxCell id="UrCILJKcK6zoqzMoZyDz-6" value="«interface»&lt;br&gt;&lt;b&gt;java.util.Collection&amp;lt;E&amp;gt;&lt;/b&gt;" style="html=1;" vertex="1" parent="1">
          <mxGeometry x="80" y="170" width="160" height="50" as="geometry" />
        </mxCell>
        <mxCell id="UrCILJKcK6zoqzMoZyDz-8" style="edgeStyle=orthogonalEdgeStyle;rounded=0;orthogonalLoop=1;jettySize=auto;html=1;exitX=0;exitY=0.5;exitDx=0;exitDy=0;entryX=0;entryY=0.5;entryDx=0;entryDy=0;endArrow=diamond;endFill=1;endSize=12;" edge="1" parent="1" source="UrCILJKcK6zoqzMoZyDz-7" target="UrCILJKcK6zoqzMoZyDz-5">
          <mxGeometry relative="1" as="geometry" />
        </mxCell>
        <mxCell id="UrCILJKcK6zoqzMoZyDz-7" value="«interface»&lt;br&gt;&lt;b&gt;java.util.Iterator&amp;lt;E&amp;gt;&lt;/b&gt;" style="html=1;" vertex="1" parent="1">
          <mxGeometry x="80" y="260" width="160" height="50" as="geometry" />
        </mxCell>
        <mxCell id="UrCILJKcK6zoqzMoZyDz-11" style="edgeStyle=orthogonalEdgeStyle;rounded=0;orthogonalLoop=1;jettySize=auto;html=1;exitX=0;exitY=0.5;exitDx=0;exitDy=0;entryX=1;entryY=0.5;entryDx=0;entryDy=0;dashed=1;endArrow=block;endFill=0;startSize=8;endSize=12;strokeWidth=1;" edge="1" parent="1" source="UrCILJKcK6zoqzMoZyDz-10" target="UrCILJKcK6zoqzMoZyDz-6">
          <mxGeometry relative="1" as="geometry" />
        </mxCell>
        <mxCell id="UrCILJKcK6zoqzMoZyDz-10" value="«interface»&lt;br&gt;&lt;b&gt;java.util.Set&amp;lt;E&amp;gt;&lt;/b&gt;" style="html=1;" vertex="1" parent="1">
          <mxGeometry x="320" y="170" width="160" height="50" as="geometry" />
        </mxCell>
        <mxCell id="UrCILJKcK6zoqzMoZyDz-15" style="edgeStyle=orthogonalEdgeStyle;rounded=0;orthogonalLoop=1;jettySize=auto;html=1;exitX=0.5;exitY=0;exitDx=0;exitDy=0;entryX=0.5;entryY=1;entryDx=0;entryDy=0;dashed=1;endArrow=block;endFill=0;startSize=8;endSize=12;strokeWidth=1;" edge="1" parent="1" source="UrCILJKcK6zoqzMoZyDz-12" target="UrCILJKcK6zoqzMoZyDz-10">
          <mxGeometry relative="1" as="geometry" />
        </mxCell>
        <mxCell id="UrCILJKcK6zoqzMoZyDz-12" value="«interface»&lt;br&gt;&lt;b&gt;java.util.SortedSet&amp;lt;E&amp;gt;&lt;/b&gt;" style="html=1;" vertex="1" parent="1">
          <mxGeometry x="320" y="260" width="160" height="50" as="geometry" />
        </mxCell>
        <mxCell id="UrCILJKcK6zoqzMoZyDz-16" style="edgeStyle=orthogonalEdgeStyle;rounded=0;orthogonalLoop=1;jettySize=auto;html=1;exitX=0.5;exitY=0;exitDx=0;exitDy=0;entryX=0.5;entryY=1;entryDx=0;entryDy=0;dashed=1;endArrow=block;endFill=0;startSize=8;endSize=12;strokeWidth=1;" edge="1" parent="1" source="UrCILJKcK6zoqzMoZyDz-13" target="UrCILJKcK6zoqzMoZyDz-12">
          <mxGeometry relative="1" as="geometry" />
        </mxCell>
        <mxCell id="UrCILJKcK6zoqzMoZyDz-13" value="«interface»&lt;br&gt;&lt;b&gt;java.util.NavigableSet&amp;lt;E&amp;gt;&lt;/b&gt;" style="html=1;" vertex="1" parent="1">
          <mxGeometry x="320" y="350" width="160" height="50" as="geometry" />
        </mxCell>
        <mxCell id="UrCILJKcK6zoqzMoZyDz-17" style="edgeStyle=orthogonalEdgeStyle;rounded=0;orthogonalLoop=1;jettySize=auto;html=1;entryX=0.5;entryY=1;entryDx=0;entryDy=0;dashed=1;endArrow=block;endFill=0;startSize=8;endSize=12;strokeWidth=1;exitX=0.5;exitY=0;exitDx=0;exitDy=0;" edge="1" parent="1" source="UrCILJKcK6zoqzMoZyDz-20" target="UrCILJKcK6zoqzMoZyDz-13">
          <mxGeometry relative="1" as="geometry">
            <mxPoint x="400" y="450" as="sourcePoint" />
          </mxGeometry>
        </mxCell>
        <mxCell id="UrCILJKcK6zoqzMoZyDz-31" style="edgeStyle=orthogonalEdgeStyle;rounded=0;orthogonalLoop=1;jettySize=auto;html=1;exitX=1;exitY=0.5;exitDx=0;exitDy=0;entryX=0.25;entryY=1;entryDx=0;entryDy=0;endArrow=block;endFill=0;startSize=8;endSize=12;strokeWidth=1;" edge="1" parent="1" source="UrCILJKcK6zoqzMoZyDz-20" target="UrCILJKcK6zoqzMoZyDz-26">
          <mxGeometry relative="1" as="geometry">
            <Array as="points">
              <mxPoint x="520" y="465" />
              <mxPoint x="520" y="250" />
              <mxPoint x="600" y="250" />
            </Array>
          </mxGeometry>
        </mxCell>
        <mxCell id="UrCILJKcK6zoqzMoZyDz-20" value="java.util.TreeSet&lt;E&gt;" style="swimlane;fontStyle=0;childLayout=stackLayout;horizontal=1;startSize=26;fillColor=none;horizontalStack=0;resizeParent=1;resizeParentMax=0;resizeLast=0;collapsible=1;marginBottom=0;" vertex="1" parent="1">
          <mxGeometry x="320" y="440" width="160" height="50" as="geometry" />
        </mxCell>
        <mxCell id="UrCILJKcK6zoqzMoZyDz-28" style="edgeStyle=orthogonalEdgeStyle;rounded=0;orthogonalLoop=1;jettySize=auto;html=1;exitX=0.5;exitY=0;exitDx=0;exitDy=0;entryX=0.5;entryY=1;entryDx=0;entryDy=0;endArrow=block;endFill=0;startSize=8;endSize=12;strokeWidth=1;" edge="1" parent="1" source="UrCILJKcK6zoqzMoZyDz-24" target="UrCILJKcK6zoqzMoZyDz-26">
          <mxGeometry relative="1" as="geometry" />
        </mxCell>
        <mxCell id="UrCILJKcK6zoqzMoZyDz-24" value="java.util.HashSet&lt;E&gt;" style="swimlane;fontStyle=0;childLayout=stackLayout;horizontal=1;startSize=26;fillColor=none;horizontalStack=0;resizeParent=1;resizeParentMax=0;resizeLast=0;collapsible=1;marginBottom=0;" vertex="1" parent="1">
          <mxGeometry x="560" y="260" width="160" height="50" as="geometry" />
        </mxCell>
        <mxCell id="UrCILJKcK6zoqzMoZyDz-29" style="edgeStyle=orthogonalEdgeStyle;rounded=0;orthogonalLoop=1;jettySize=auto;html=1;exitX=0.5;exitY=0;exitDx=0;exitDy=0;entryX=0.5;entryY=1;entryDx=0;entryDy=0;endArrow=block;endFill=0;startSize=8;endSize=12;strokeWidth=1;" edge="1" parent="1" source="UrCILJKcK6zoqzMoZyDz-25" target="UrCILJKcK6zoqzMoZyDz-24">
          <mxGeometry relative="1" as="geometry" />
        </mxCell>
        <mxCell id="UrCILJKcK6zoqzMoZyDz-25" value="java.util.LinkedHashSet&lt;E&gt;" style="swimlane;fontStyle=0;childLayout=stackLayout;horizontal=1;startSize=26;fillColor=none;horizontalStack=0;resizeParent=1;resizeParentMax=0;resizeLast=0;collapsible=1;marginBottom=0;" vertex="1" parent="1">
          <mxGeometry x="560" y="350" width="160" height="50" as="geometry" />
        </mxCell>
        <mxCell id="UrCILJKcK6zoqzMoZyDz-30" style="edgeStyle=orthogonalEdgeStyle;rounded=0;orthogonalLoop=1;jettySize=auto;html=1;exitX=0;exitY=0.5;exitDx=0;exitDy=0;entryX=1;entryY=0.5;entryDx=0;entryDy=0;endArrow=block;endFill=0;startSize=8;endSize=12;strokeWidth=1;dashed=1;" edge="1" parent="1" source="UrCILJKcK6zoqzMoZyDz-26" target="UrCILJKcK6zoqzMoZyDz-10">
          <mxGeometry relative="1" as="geometry" />
        </mxCell>
        <mxCell id="UrCILJKcK6zoqzMoZyDz-26" value="java.util.AbstractSet&lt;E&gt;" style="swimlane;fontStyle=0;childLayout=stackLayout;horizontal=1;startSize=26;fillColor=none;horizontalStack=0;resizeParent=1;resizeParentMax=0;resizeLast=0;collapsible=1;marginBottom=0;" vertex="1" parent="1">
          <mxGeometry x="560" y="170" width="160" height="50" as="geometry" />
        </mxCell>
      </root>
    </mxGraphModel>
  </diagram>
</mxfile>
